# xmcd
#
# Track frame offsets:
#	150
#	15567
#	29070
#	44340
#	58610
#	72617
#	82970
#	96272
#	108757
#	124455
#	140507
#	151732
#
# Disc length: 2206 seconds
#
# Revision: 0
# Processed by: cddbd v1.4PL0 Copyright (c) Steve Scherf et al.
# Submitted via: dBpowerAMP V4.0
#
DISCID=a2089c0c
DTITLE=Lalo mora  - el aguila real
DYEAR=1900
DGENRE=Country
TTITLE0=a grito abierto 
TTITLE1=alas caidas
TTITLE2=el fantasma de tu amor
TTITLE3=el aguila real
TTITLE4=no podras olvidarme
TTITLE5=de tierras legenas 
TTITLE6=de que te quejas 
TTITLE7=que me reclamas
TTITLE8=linda muchachita
TTITLE9=acordeon
TTITLE10=me arranco el alma
TTITLE11=paco el guapo
EXTD=
EXTT0=
EXTT1=
EXTT2=
EXTT3=
EXTT4=
EXTT5=
EXTT6=
EXTT7=
EXTT8=
EXTT9=
EXTT10=
EXTT11=
PLAYORDER=
